HIERARCHY
ROOT Hips
{
	OFFSET -3.958830 18.904000 13.208200
	CHANNELS 6 Xposition Yposition Zposition Zrotation Yrotation Xrotation 
	JOINT LHipJoint
	{
		OFFSET 0.000000 0.000000 0.000000
		CHANNELS 3 Zrotation Yrotation Xrotation
		JOINT LeftUpLeg
		{
			OFFSET 1.800000 -1.400000 0.085000
			CHANNELS 3 Zrotation Yrotation Xrotation
			JOINT LeftLeg
			{
				OFFSET 2.215000 -6.000000 0.000000
				CHANNELS 3 Zrotation Yrotation Xrotation
				JOINT LeftFoot
				{
					OFFSET 2.500000 -6.900000 0.000000
					CHANNELS 3 Zrotation Yrotation Xrotation
					JOINT LeftToeBase
					{
						OFFSET 0.200000 -0.500000 1.950000
						CHANNELS 3 Zrotation Yrotation Xrotation
						End Site
						{
							OFFSET 0.000000 0.000000 0.000000
						}
					}
				}
			}
		}
	}
	JOINT RHipJoint
	{
		OFFSET 0.000000 0.000000 0.000000
		CHANNELS 3 Zrotation Yrotation Xrotation
		JOINT RightUpLeg
		{
			OFFSET -1.800000 -1.400000 0.085000
			CHANNELS 3 Zrotation Yrotation Xrotation
			JOINT RightLeg
			{
				OFFSET -2.215000 -6.000000 0.000000
				CHANNELS 3 Zrotation Yrotation Xrotation
				JOINT RightFoot
				{
					OFFSET -2.500000 -6.900000 0.000000
					CHANNELS 3 Zrotation Yrotation Xrotation
					JOINT RightToeBase
					{
						OFFSET -0.200000 -0.500000 1.950000
						CHANNELS 3 Zrotation Yrotation Xrotation
						End Site
						{
							OFFSET 0.000000 0.000000 0.000000
						}
					}
				}
			}
		}
	}
	JOINT LowerBack
	{
		OFFSET 0.000000 0.000000 0.000000
		CHANNELS 3 Zrotation Yrotation Xrotation
		JOINT Spine
		{
			OFFSET -0.087000 1.940000 -0.288900
			CHANNELS 3 Zrotation Yrotation Xrotation
			JOINT Spine1
			{
				OFFSET 0.000000 1.950000 0.060000
				CHANNELS 3 Zrotation Yrotation Xrotation
				JOINT Neck
				{
					OFFSET 0.000000 0.000000 0.000000
					CHANNELS 3 Zrotation Yrotation Xrotation
					JOINT Neck1
					{
						OFFSET 0.000000 1.600000 0.340000
						CHANNELS 3 Zrotation Yrotation Xrotation
						JOINT Head
						{
							OFFSET 0.000000 1.667000 -0.240000
							CHANNELS 3 Zrotation Yrotation Xrotation
							End Site
							{
								OFFSET 0.000000 0.000000 0.000000
							}
						}
					}
				}
				JOINT LeftShoulder
				{
					OFFSET 0.000000 0.000000 0.000000
					CHANNELS 3 Zrotation Yrotation Xrotation
					JOINT LeftArm
					{
						OFFSET 2.700000 1.550000 -0.730000
						CHANNELS 3 Zrotation Yrotation Xrotation
						JOINT LeftForeArm
						{
							OFFSET 5.450000 0.000000 0.000000
							CHANNELS 3 Zrotation Yrotation Xrotation
							JOINT LeftHand
							{
								OFFSET 3.450000 0.000000 0.000000
								CHANNELS 3 Zrotation Yrotation Xrotation
								JOINT LeftHandIndex1
								{
									OFFSET 0.750000 0.000000 0.000000
									CHANNELS 3 Zrotation Yrotation Xrotation
									End Site
									{
										OFFSET 0.000000 0.000000 0.000000
									}
								}
							}
						}
					}
				}
				JOINT RightShoulder
				{
					OFFSET 0.000000 0.000000 0.000000
					CHANNELS 3 Zrotation Yrotation Xrotation
					JOINT RightArm
					{
						OFFSET -2.700000 1.550000 -0.730000
						CHANNELS 3 Zrotation Yrotation Xrotation
						JOINT RightForeArm
						{
							OFFSET -5.450000 0.000000 0.000000
							CHANNELS 3 Zrotation Yrotation Xrotation
							JOINT RightHand
							{
								OFFSET -3.450000 0.000000 0.000000
								CHANNELS 3 Zrotation Yrotation Xrotation
								JOINT RightHandIndex1
								{
									OFFSET -0.750000 0.000000 0.000000
									CHANNELS 3 Zrotation Yrotation Xrotation
									End Site
									{
										OFFSET 0.000000 0.000000 0.000000
									}
								}
							}
						}
					}
				}
			}
		}
	}
}
MOTION
Frames: 6
Frame Time: 0.016667
-0.011380 17.821830 -1.016640 -1.707836 -1.948221 -2.550868 -15.031923 13.330785 2.697289 4.601826 -0.580364 -8.773654 -7.049365 5.965311 11.650271 -0.734332 4.693508 3.171954 -0.347170 -0.600020 -0.312670 18.398918 -11.087458 2.767219 -2.640584 -0.034347 -7.442143 5.751225 -4.866030 10.081744 0.128167 -3.918642 3.139558 -0.069630 0.968500 0.122140 -3.919557 -1.398075 -7.032141 11.399134 0.520429 5.900294 -3.478396 1.110012 13.047433 1.208244 -3.289380 -10.639783 -7.532883 2.446727 31.681689 -3.108730 -0.084710 2.685100 -7.075191 -15.524789 4.548529 -2.401566 -21.527817 -1.755749 106.063999 -25.402726 -34.645793 -4.405058 2.595883 0.179270 0.588950 -0.567860 0.005680 4.907513 17.971982 6.978743 2.126368 15.850427 -6.792315 -103.429859 28.713799 -37.592995 1.833708 -1.550357 -0.607000 0.494940 0.563850 -0.045440 
-0.011120 17.818070 -1.017490 -1.666508 -1.950262 -2.543056 -15.037038 13.334054 2.699553 4.579387 -0.584662 -8.787447 -7.081826 5.980447 11.689819 -0.735370 4.701316 3.167088 -0.342850 -0.597140 -0.305620 18.395264 -11.087309 2.759060 -2.531558 -0.004238 -7.526839 5.471862 -4.800087 10.233112 0.132305 -3.901102 3.135731 -0.064640 0.965170 0.123450 -3.906394 -1.406253 -7.023062 11.237753 0.545063 5.851709 -3.381425 1.115997 13.102073 1.162035 -3.282052 -10.608110 -7.509759 2.459725 31.611166 -3.085780 -0.078260 2.706470 -6.765634 -15.429386 4.498192 -2.414206 -21.755168 -1.769655 105.609594 -25.125534 -34.110412 -4.405792 2.610511 0.175840 0.587420 -0.568670 0.003160 4.697914 17.880532 6.940433 2.115012 15.897687 -6.789006 -103.183890 28.575162 -37.302576 1.838124 -1.562213 -0.606510 0.490650 0.562100 -0.046950 
-0.007870 17.813140 -1.019780 -1.666405 -2.036242 -2.453577 -15.036185 13.332813 2.697647 4.540884 -0.614451 -8.907790 -7.042086 5.973259 11.788313 -0.756996 4.713275 3.165656 -0.332660 -0.591910 -0.307820 18.398989 -11.098806 2.741371 -2.272271 0.081332 -7.837219 4.939872 -4.692602 10.677344 0.148400 -3.877534 3.145307 -0.049330 0.979590 0.125450 -3.911188 -1.387244 -6.992494 11.197470 0.586196 5.670650 -3.386550 1.141275 13.144418 1.067035 -3.298013 -10.475417 -7.481763 2.516143 31.326741 -2.890740 -0.207780 2.804940 -6.301063 -15.143281 4.362625 -2.576373 -22.280915 -1.659490 105.067392 -24.732896 -33.447415 -4.417044 2.627980 0.171200 0.599630 -0.584200 0.011020 4.414453 17.588861 6.799676 2.213989 16.150819 -6.683069 -102.810979 28.364370 -36.846169 1.822843 -1.583416 -0.615230 0.495360 0.563580 -0.049270 
-0.001660 17.806410 -1.024090 -1.643144 -2.111769 -2.376872 -15.035209 13.342741 2.699322 4.480424 -0.632926 -9.035701 -6.989826 5.968537 11.888047 -0.780173 4.728580 3.164565 -0.342240 -0.599470 -0.334150 18.400539 -11.108682 2.717133 -2.106264 0.192613 -8.281888 4.550060 -4.638221 11.356517 0.172650 -3.860041 3.153671 -0.039330 1.009170 0.119450 -3.913608 -1.393488 -6.962228 11.135622 0.556192 5.533961 -3.419353 1.105707 13.144297 0.918124 -3.419061 -10.351247 -7.666768 2.669284 31.093722 -2.424210 -0.497170 2.972110 -5.863667 -14.842062 4.260958 -2.806912 -22.690460 -1.541580 104.756643 -24.354071 -32.954969 -4.435055 2.631963 0.164340 0.614790 -0.607620 0.015810 4.260567 17.350957 6.641855 2.213319 16.520593 -6.551703 -102.494720 28.187670 -36.403157 1.807729 -1.588237 -0.632150 0.513080 0.580520 -0.044170 
0.006430 17.797480 -1.028950 -1.506012 -2.267418 -2.281015 -15.040282 13.361183 2.714288 4.326459 -0.659963 -9.218838 -7.036618 5.995448 12.024922 -0.797826 4.750390 3.152983 -0.355410 -0.619570 -0.343740 18.392716 -11.117938 2.681108 -2.129334 0.356299 -8.935271 4.266644 -4.630494 12.326613 0.200301 -3.840832 3.148231 -0.037940 1.021930 0.118510 -3.892928 -1.421582 -6.935277 10.867733 0.576063 5.385524 -3.333585 1.090771 13.087315 0.801812 -3.513650 -10.240842 -7.847048 2.835885 31.036605 -2.229740 -0.558290 3.242740 -5.598579 -14.568983 4.180357 -2.989734 -23.073179 -1.403104 104.433393 -24.056705 -32.464415 -4.451652 2.637961 0.160690 0.623140 -0.623990 0.007280 4.222375 17.147000 6.492273 2.229074 16.952126 -6.374039 -102.390906 28.035473 -36.078105 1.804191 -1.591500 -0.645830 0.514790 0.596960 -0.047620 
0.017570 17.784150 -1.031940 -1.413488 -2.296178 -2.218820 -15.042806 13.383632 2.726470 4.180208 -0.693798 -9.416131 -7.070285 6.033686 12.245206 -0.820099 4.785605 3.146808 -0.366680 -0.640270 -0.352110 18.387858 -11.124270 2.643923 -2.156289 0.528867 -9.601201 4.027134 -4.650366 13.429665 0.222065 -3.834225 3.142975 -0.036120 1.047130 0.114350 -3.882431 -1.462388 -6.904287 10.740385 0.494380 5.245769 -3.328153 0.975604 13.056042 0.655794 -3.709209 -10.123162 -8.210007 3.086294 30.929240 -1.981640 -0.646930 3.415040 -5.285006 -14.199846 4.110897 -3.425687 -23.418072 -1.209600 104.259050 -23.842574 -32.225028 -4.468806 2.631260 0.163280 0.633640 -0.642690 0.005850 4.184287 16.888784 6.320883 2.442065 17.479630 -6.141981 -102.623374 27.964622 -36.106273 1.792618 -1.588802 -0.667330 0.532470 0.613020 -0.050120 
